# xmcd
# 
# Track frame offsets:
#     150
#     14560
#     37057
#     57925
#     75882
#     93700
#     117690
#     136825
#     159342
#     177450
# 
# Disc length: 2701
# 
# Revision: 7
# Processed by: cddbd v1.5.2PL0 Copyright (c) Steve Scherf et al.
# Submitted via: BonkEnc v1.0.6
# 
DISCID=820a8b0a
DTITLE=Macy Gray - On How Life Is
DYEAR=1999
DGENRE=R&b
TTITLE0=Why Didn't You Call Me
TTITLE1=Do Something
TTITLE2=Caligula
TTITLE3=I Try
TTITLE4=Sex-O-Matic Venus Freak
TTITLE5=I Can't Wait To Meetchu
TTITLE6=Still
TTITLE7=I've Commited Murder
TTITLE8=A Moment To Myself
TTITLE9=The Letter
EXTD=YEAR: 1999 ID3G: 14
EXTT0=
EXTT1=
EXTT2=
EXTT3=
EXTT4=
EXTT5=
EXTT6=
EXTT7=
EXTT8=
EXTT9=
PLAYORDER=
